<?xml version="1.0" encoding="utf-8"?>
<!-- Generator: Adobe Illustrator 23.0.1, SVG Export Plug-In . SVG Version: 6.00 Build 0)  -->
<svg version="1.1" id="Capa_1" xmlns="http://www.w3.org/2000/svg" xmlns:xlink="http://www.w3.org/1999/xlink" x="0px" y="0px"
	 viewBox="0 0 150 150" style="enable-background:new 0 0 150 150;" xml:space="preserve">
<style type="text/css">
	.st0{fill:#AAAAAA;}
</style>
<g>
	<g>
		<path class="st0" d="M129.4,35.9c0-0.7-0.2-1.4-0.7-1.9L99.8,1c0,0,0,0,0,0c-0.2-0.2-0.4-0.4-0.6-0.5c-0.1,0-0.1-0.1-0.2-0.1
			c-0.2-0.1-0.4-0.2-0.6-0.2c-0.1,0-0.1,0-0.2-0.1C98,0,97.8,0,97.5,0H26.5c-3.2,0-5.9,2.6-5.9,5.9v138.2c0,3.2,2.6,5.9,5.9,5.9
			h97.1c3.2,0,5.9-2.6,5.9-5.9V36.3C129.4,36.2,129.4,36.1,129.4,35.9z M66.3,142.6H38.6v-4.3l17-24.5v-0.2H40.2v-6.7h25.9v4.7
			l-16.6,24.1v0.2h16.9L66.3,142.6L66.3,142.6z M79.5,142.6h-8.1v-35.7h8.1V142.6z M108.9,126.2c-2.8,2.6-6.8,3.8-11.6,3.8
			c-1.1,0-2-0.1-2.8-0.2v12.8h-8v-35.2c2.5-0.4,6-0.7,10.9-0.7c5,0,8.5,1,10.9,2.9c2.3,1.8,3.8,4.8,3.8,8.3
			C112.1,121.2,111,124.2,108.9,126.2z M26.5,99.9v-94h35.2V5h8.9v0.9h24V36c0,1.6,1.3,2.9,2.9,2.9h26l0,61H26.5z"/>
		<path class="st0" d="M97.8,112.7c-1.6,0-2.8,0.2-3.3,0.3v10.5c0.7,0.2,1.5,0.2,2.7,0.2c4.3,0,6.9-2.2,6.9-5.8
			C104.1,114.7,101.9,112.7,97.8,112.7z"/>
		<rect x="70.6" y="10.9" class="st0" width="8.9" height="3.7"/>
		<rect x="61.6" y="5.9" class="st0" width="8.9" height="2.8"/>
		<rect x="61.6" y="16.4" class="st0" width="8.9" height="3.7"/>
		<rect x="70.6" y="22.4" class="st0" width="8.9" height="3.7"/>
		<rect x="70.6" y="34" class="st0" width="8.9" height="3.7"/>
		<rect x="61.6" y="28.1" class="st0" width="8.9" height="3.7"/>
		<path class="st0" d="M70.6,40.7c-6.3,0-9.3,5.1-9.3,11.4l-2.1,19.2c0,6.3,5.1,11.4,11.4,11.4c6.3,0,11.4-5.1,11.4-11.4l-2.1-19.2
			C79.9,45.8,76.9,40.7,70.6,40.7z M74.4,77.7h-7.6v-16h7.6V77.7z"/>
	</g>
</g>
</svg>
