<?xml version="1.0" encoding="utf-8"?>
<!-- Generator: Adobe Illustrator 23.0.1, SVG Export Plug-In . SVG Version: 6.00 Build 0)  -->
<svg version="1.1" id="Capa_1" xmlns="http://www.w3.org/2000/svg" xmlns:xlink="http://www.w3.org/1999/xlink" x="0px" y="0px"
	 viewBox="0 0 150 150" style="enable-background:new 0 0 150 150;" xml:space="preserve">
<style type="text/css">
	.st0{fill:#AAAAAA;}
</style>
<g>
	<path class="st0" d="M44.2,96.5c0-2.5-1.7-4-4.8-4c-1.2,0-2.1,0.1-2.5,0.2v8c0.5,0.1,1.2,0.2,2,0.2C42.2,100.9,44.2,99.3,44.2,96.5
		z"/>
	<path class="st0" d="M63.1,92.6c-1.4,0-2.2,0.1-2.8,0.2v17.7c0.5,0.1,1.4,0.1,2.1,0.1c5.5,0,9.2-3,9.2-9.5
		C71.6,95.6,68.3,92.6,63.1,92.6z"/>
	<path class="st0" d="M98.1,0H37.9c-8.8,0-16,7.2-16,16v59h-1.6c-3.6,0-6.4,2.9-6.4,6.4v39c0,3.6,2.9,6.4,6.4,6.4h1.6v7.2
		c0,8.8,7.2,16,16,16h82.2c8.8,0,16-7.2,16-16V37.8L98.1,0z M30.8,88.5c1.9-0.3,4.5-0.6,8.3-0.6c3.8,0,6.5,0.7,8.3,2.2
		c1.7,1.4,2.9,3.6,2.9,6.3c0,2.6-0.9,4.9-2.5,6.4c-2.1,2-5.2,2.8-8.8,2.8c-0.8,0-1.5,0-2.1-0.1v9.7h-6.1V88.5z M120.1,140.2H37.9
		c-3.4,0-6.2-2.8-6.2-6.2v-7.2h76.6c3.6,0,6.4-2.9,6.4-6.4v-39c0-3.6-2.9-6.4-6.4-6.4H31.7V16c0-3.4,2.8-6.2,6.2-6.2l56.6-0.1v20.9
		c0,6.1,5,11.1,11.1,11.1l20.5-0.1l0.2,92.4C126.3,137.4,123.5,140.2,120.1,140.2z M54.2,115V88.5c2.2-0.4,5.2-0.6,8.3-0.6
		c5.1,0,8.5,0.9,11.1,2.9c2.8,2.1,4.6,5.4,4.6,10.2c0,5.2-1.9,8.8-4.5,11c-2.8,2.4-7.2,3.5-12.5,3.5C57.9,115.5,55.7,115.3,54.2,115
		z M98,99.3v5h-9.7v10.9h-6.1V88.1h16.5v5H88.3v6.2H98z"/>
</g>
</svg>
