<?xml version="1.0" encoding="utf-8"?>
<!-- Generator: Adobe Illustrator 23.0.1, SVG Export Plug-In . SVG Version: 6.00 Build 0)  -->
<svg version="1.1" id="Layer_1" xmlns="http://www.w3.org/2000/svg" xmlns:xlink="http://www.w3.org/1999/xlink" x="0px" y="0px"
	 viewBox="0 0 120 120" style="enable-background:new 0 0 120 120;" xml:space="preserve">
<style type="text/css">
	.st0{fill:#DF7830;}
	.st1{fill:#FFCC2F;}
</style>
<g>
	<g>
		<g>
			<path class="st0" d="M60,118c-3.7,0-7.3-1.6-9.8-4.5L9,65.7c-2-2.3-3.2-5.3-3.2-8.4V14.9C5.8,7.8,11.6,2,18.7,2h82.5
				c7.1,0,12.9,5.8,12.9,12.9v42.4c0,3.1-1.1,6.1-3.2,8.4l-41.2,47.8C67.3,116.4,63.7,118,60,118z M26.1,54.6L60,93.9l33.9-39.3
				V22.3H26.1V54.6z"/>
		</g>
	</g>
	<path class="st1" d="M104,14.9v42.4c0,0.7-0.2,1.3-0.7,1.8L62,106.9c-1.1,1.3-3.1,1.3-4.2,0L16.6,59.1c-0.5-0.5-0.7-1.1-0.7-1.8
		V14.9c0-1.5,1.2-2.7,2.7-2.7h82.5C102.7,12.1,104,13.3,104,14.9z"/>
</g>
</svg>
